<?xml version="1.0" encoding="UTF-8"?>
<svg width="1024" height="1024" viewBox="0 0 1024 1024" xmlns="http://www.w3.org/2000/svg">
    <!-- 背景 -->
    <defs>
        <linearGradient id="bgGradient" x1="0%" y1="0%" x2="100%" y2="100%">
            <stop offset="0%" style="stop-color:#FFFFFF"/>
            <stop offset="100%" style="stop-color:#F6F6F6"/>
        </linearGradient>
        <!-- 公司网络 - 专业蓝色 -->
        <linearGradient id="iconGradient1" x1="0%" y1="0%" x2="100%" y2="100%">
            <stop offset="0%" style="stop-color:#007AFF"/>
            <stop offset="100%" style="stop-color:#0055D5"/>
        </linearGradient>
        <!-- 宿舍网络 - 活力橙色 -->
        <linearGradient id="iconGradient2" x1="0%" y1="0%" x2="100%" y2="100%">
            <stop offset="0%" style="stop-color:#FF9F0A"/>
            <stop offset="100%" style="stop-color:#E67D00"/>
        </linearGradient>
        <!-- 家庭网络 - 温暖绿色 -->
        <linearGradient id="iconGradient3" x1="0%" y1="0%" x2="100%" y2="100%">
            <stop offset="0%" style="stop-color:#2CD9510"/>
            <stop offset="100%" style="stop-color:#28B13D"/>
        </linearGradient>
        <!-- 统一的阴影效果 -->
        <filter id="shadowFilter" x="-10%" y="-10%" width="120%" height="120%">
            <feDropShadow dx="0" dy="6" stdDeviation="8" flood-opacity="0.12"/>
        </filter>
        <!-- 图标内阴影 -->
        <filter id="innerShadow" x="-20%" y="-20%" width="140%" height="140%">
            <feGaussianBlur in="SourceAlpha" stdDeviation="2" result="blur"/>
            <feOffset dy="2" dx="0"/>
            <feComposite in2="SourceAlpha" operator="arithmetic" k2="-1" k3="1"/>
        </filter>
    </defs>
    
    <!-- 圆角矩形背景 -->
    <rect x="112" y="112" width="800" height="800" rx="220" ry="220"
        fill="url(#bgGradient)" 
        filter="url(#shadowFilter)"/>
    
    <!-- 中心圆形区域 -->
    <circle cx="512" cy="512" r="340" 
        fill="rgba(0,0,0,0.02)" 
        filter="url(#innerShadow)"/>
    
    <!-- 顶部 WiFi 图标 -->
    <g transform="translate(512,392) scale(0.65) rotate(315)" fill="none" stroke="url(#iconGradient1)" stroke-linecap="round">
        <path d="M -120,-120 A 169.7,169.7 0 0 1 120,-120" stroke-width="45"/>
        <path d="M -60,-60 A 84.85,84.85 0 0 1 60,-60" stroke-width="32"/>
        <circle cx="0" cy="0" r="28" fill="url(#iconGradient1)" stroke="none"/>
    </g>
    
    <!-- 左下 WiFi 图标 -->
    <g transform="translate(392,632) scale(0.65) rotate(315)" fill="none" stroke="url(#iconGradient2)" stroke-linecap="round">
        <path d="M -120,-120 A 169.7,169.7 0 0 1 120,-120" stroke-width="45"/>
        <path d="M -60,-60 A 84.85,84.85 0 0 1 60,-60" stroke-width="32"/>
        <circle cx="0" cy="0" r="28" fill="url(#iconGradient2)" stroke="none"/>
    </g>
    
    <!-- 右下 WiFi 图标 -->
    <g transform="translate(632,632) scale(0.65) rotate(315)" fill="none" stroke="url(#iconGradient3)" stroke-linecap="round">
        <path d="M -120,-120 A 169.7,169.7 0 0 1 120,-120" stroke-width="45"/>
        <path d="M -60,-60 A 84.85,84.85 0 0 1 60,-60" stroke-width="32"/>
        <circle cx="0" cy="0" r="28" fill="url(#iconGradient3)" stroke="none"/>
    </g>
</svg> 